<svg width="307" height="170" viewBox="0 0 307 170" fill="none" xmlns="http://www.w3.org/2000/svg">
<mask id="path-1-outside-1_935_181" maskUnits="userSpaceOnUse" x="-0.234375" y="31" width="105" height="108" fill="black">
<rect fill="white" x="-0.234375" y="31" width="105" height="108"/>
<path d="M100.328 123.562C99.7448 123.562 99.1615 123.542 98.5781 123.5C98.0365 123.458 97.474 123.438 96.8906 123.438C93.849 123.438 90.6406 123.625 87.2656 124C83.9323 124.375 80.599 124.938 77.2656 125.688C73.9323 126.438 70.6823 127.354 67.5156 128.438C64.349 129.562 61.4115 130.833 58.7031 132.25C59.5365 129.5 60.3906 126.75 61.2656 124C62.1406 121.25 62.974 118.479 63.7656 115.688C64.5573 112.854 65.2865 109.979 65.9531 107.062C66.6198 104.104 67.2031 101.062 67.7031 97.9375C64.8281 97.6875 61.9115 97.5 58.9531 97.375C56.0365 97.25 53.1406 97.1875 50.2656 97.1875C46.8073 97.1875 43.2031 97.2708 39.4531 97.4375C35.7031 97.6042 31.9115 97.8542 28.0781 98.1875C24.2448 98.4792 20.4323 98.875 16.6406 99.375C12.849 99.8333 9.18229 100.375 5.64062 101C11.3073 90.6667 16.0156 80.0417 19.7656 69.125C23.5573 58.1667 26.349 46.7708 28.1406 34.9375C29.974 35.4375 31.9323 35.875 34.0156 36.25C36.1406 36.5833 38.2865 36.875 40.4531 37.125C42.6198 37.3333 44.7448 37.5 46.8281 37.625C48.9531 37.75 50.9531 37.8125 52.8281 37.8125C55.2865 37.8125 57.724 37.7083 60.1406 37.5C62.5573 37.2917 64.9948 37 67.4531 36.625C62.4531 42.5833 57.8073 48.9583 53.5156 55.75C49.2656 62.5 45.6198 69.9583 42.5781 78.125C44.0781 78.25 45.5365 78.375 46.9531 78.5C48.4115 78.5833 49.8698 78.625 51.3281 78.625C54.2865 78.625 57.2031 78.5 60.0781 78.25C62.9531 77.9583 65.8698 77.5208 68.8281 76.9375C68.5781 70.0208 67.6823 62.5208 66.1406 54.4375C67.0573 54.5208 67.9531 54.5833 68.8281 54.625C69.7448 54.6667 70.6406 54.6875 71.5156 54.6875C73.5156 54.6875 75.7031 54.6042 78.0781 54.4375C80.4531 54.2292 82.8698 53.9375 85.3281 53.5625C87.8281 53.1458 90.2865 52.6458 92.7031 52.0625C95.1198 51.4792 97.3281 50.8125 99.3281 50.0625C98.5365 55.6042 97.974 61.0833 97.6406 66.5C97.3073 71.875 97.1406 77.2708 97.1406 82.6875C97.1406 89.6042 97.4115 96.4583 97.9531 103.25C98.4948 110.042 99.2865 116.812 100.328 123.562Z"/>
</mask>
<path d="M100.328 123.562C99.7448 123.562 99.1615 123.542 98.5781 123.5C98.0365 123.458 97.474 123.438 96.8906 123.438C93.849 123.438 90.6406 123.625 87.2656 124C83.9323 124.375 80.599 124.938 77.2656 125.688C73.9323 126.438 70.6823 127.354 67.5156 128.438C64.349 129.562 61.4115 130.833 58.7031 132.25C59.5365 129.5 60.3906 126.75 61.2656 124C62.1406 121.25 62.974 118.479 63.7656 115.688C64.5573 112.854 65.2865 109.979 65.9531 107.062C66.6198 104.104 67.2031 101.062 67.7031 97.9375C64.8281 97.6875 61.9115 97.5 58.9531 97.375C56.0365 97.25 53.1406 97.1875 50.2656 97.1875C46.8073 97.1875 43.2031 97.2708 39.4531 97.4375C35.7031 97.6042 31.9115 97.8542 28.0781 98.1875C24.2448 98.4792 20.4323 98.875 16.6406 99.375C12.849 99.8333 9.18229 100.375 5.64062 101C11.3073 90.6667 16.0156 80.0417 19.7656 69.125C23.5573 58.1667 26.349 46.7708 28.1406 34.9375C29.974 35.4375 31.9323 35.875 34.0156 36.25C36.1406 36.5833 38.2865 36.875 40.4531 37.125C42.6198 37.3333 44.7448 37.5 46.8281 37.625C48.9531 37.75 50.9531 37.8125 52.8281 37.8125C55.2865 37.8125 57.724 37.7083 60.1406 37.5C62.5573 37.2917 64.9948 37 67.4531 36.625C62.4531 42.5833 57.8073 48.9583 53.5156 55.75C49.2656 62.5 45.6198 69.9583 42.5781 78.125C44.0781 78.25 45.5365 78.375 46.9531 78.5C48.4115 78.5833 49.8698 78.625 51.3281 78.625C54.2865 78.625 57.2031 78.5 60.0781 78.25C62.9531 77.9583 65.8698 77.5208 68.8281 76.9375C68.5781 70.0208 67.6823 62.5208 66.1406 54.4375C67.0573 54.5208 67.9531 54.5833 68.8281 54.625C69.7448 54.6667 70.6406 54.6875 71.5156 54.6875C73.5156 54.6875 75.7031 54.6042 78.0781 54.4375C80.4531 54.2292 82.8698 53.9375 85.3281 53.5625C87.8281 53.1458 90.2865 52.6458 92.7031 52.0625C95.1198 51.4792 97.3281 50.8125 99.3281 50.0625C98.5365 55.6042 97.974 61.0833 97.6406 66.5C97.3073 71.875 97.1406 77.2708 97.1406 82.6875C97.1406 89.6042 97.4115 96.4583 97.9531 103.25C98.4948 110.042 99.2865 116.812 100.328 123.562Z" fill="#F1F1F1"/>
<path d="M100.328 123.562V126.562H103.827L103.293 123.105L100.328 123.562ZM98.5781 123.5L98.348 126.491L98.3562 126.492L98.3644 126.492L98.5781 123.5ZM87.2656 124L86.9343 121.018L86.9302 121.019L87.2656 124ZM67.5156 128.438L66.5446 125.599L66.5279 125.605L66.5113 125.611L67.5156 128.438ZM58.7031 132.25L55.8321 131.38L53.7587 138.222L60.0936 134.908L58.7031 132.25ZM63.7656 115.688L66.6518 116.506L66.655 116.495L63.7656 115.688ZM65.9531 107.062L68.8777 107.731L68.8797 107.722L65.9531 107.062ZM67.7031 97.9375L70.6654 98.4115L71.1748 95.2281L67.963 94.9488L67.7031 97.9375ZM58.9531 97.375L58.8247 100.372L58.8265 100.372L58.9531 97.375ZM28.0781 98.1875L28.3057 101.179L28.3219 101.178L28.338 101.176L28.0781 98.1875ZM16.6406 99.375L17.0006 102.353L17.0167 102.351L17.0328 102.349L16.6406 99.375ZM5.64062 101L3.01019 99.5575L0.00298048 105.041L6.16198 103.954L5.64062 101ZM19.7656 69.125L16.9305 68.144L16.9284 68.1504L19.7656 69.125ZM28.1406 34.9375L28.93 32.0432L25.6789 31.1566L25.1744 34.4884L28.1406 34.9375ZM34.0156 36.25L33.4842 39.2025L33.5174 39.2085L33.5507 39.2138L34.0156 36.25ZM40.4531 37.125L40.1093 40.1052L40.1376 40.1085L40.166 40.1112L40.4531 37.125ZM46.8281 37.625L46.6484 40.6196L46.652 40.6198L46.8281 37.625ZM67.4531 36.625L69.7512 38.5534L74.8648 32.4597L67.0007 33.6593L67.4531 36.625ZM53.5156 55.75L50.9795 54.1474L50.9769 54.1516L53.5156 55.75ZM42.5781 78.125L39.7668 77.0779L38.3857 80.786L42.329 81.1146L42.5781 78.125ZM46.9531 78.5L46.6894 81.4884L46.7357 81.4925L46.782 81.4951L46.9531 78.5ZM60.0781 78.25L60.338 81.2387L60.3595 81.2369L60.3809 81.2347L60.0781 78.25ZM68.8281 76.9375L69.4085 79.8808L71.9186 79.3859L71.8262 76.8291L68.8281 76.9375ZM66.1406 54.4375L66.4122 51.4498L62.448 51.0894L63.1937 54.9995L66.1406 54.4375ZM68.8281 54.625L68.6854 57.6216L68.6919 57.6219L68.8281 54.625ZM78.0781 54.4375L78.2881 57.4301L78.3142 57.4283L78.3403 57.426L78.0781 54.4375ZM85.3281 53.5625L85.7805 56.5282L85.8009 56.5251L85.8213 56.5217L85.3281 53.5625ZM99.3281 50.0625L102.298 50.4868L103.014 45.4764L98.2748 47.2535L99.3281 50.0625ZM97.6406 66.5L100.635 66.6857L100.635 66.6843L97.6406 66.5ZM100.328 123.562V120.562C99.8163 120.562 99.3042 120.544 98.7919 120.508L98.5781 123.5L98.3644 126.492C99.0187 126.539 99.6733 126.562 100.328 126.562V123.562ZM98.5781 123.5L98.8082 120.509C98.1846 120.461 97.5452 120.438 96.8906 120.438V123.438V126.438C97.4027 126.438 97.8883 126.456 98.348 126.491L98.5781 123.5ZM96.8906 123.438V120.438C93.7264 120.438 90.4069 120.633 86.9343 121.018L87.2656 124L87.5969 126.982C90.8744 126.617 93.9715 126.438 96.8906 126.438V123.438ZM87.2656 124L86.9302 121.019C83.4863 121.406 80.0451 121.987 76.6071 122.761L77.2656 125.688L77.9242 128.614C81.1528 127.888 84.3783 127.344 87.601 126.981L87.2656 124ZM77.2656 125.688L76.6071 122.761C73.1703 123.534 69.8158 124.48 66.5446 125.599L67.5156 128.438L68.4867 131.276C71.5487 130.228 74.6943 129.341 77.9242 128.614L77.2656 125.688ZM67.5156 128.438L66.5113 125.611C63.225 126.778 60.1572 128.104 57.3126 129.592L58.7031 132.25L60.0936 134.908C62.6658 133.563 65.4729 132.347 68.5199 131.264L67.5156 128.438ZM58.7031 132.25L61.5742 133.12C62.4035 130.383 63.2536 127.646 64.1244 124.91L61.2656 124L58.4068 123.09C57.5277 125.854 56.6694 128.617 55.8321 131.38L58.7031 132.25ZM61.2656 124L64.1244 124.91C65.0091 122.129 65.8515 119.328 66.6518 116.506L63.7656 115.688L60.8794 114.869C60.0964 117.63 59.2722 120.371 58.4068 123.09L61.2656 124ZM63.7656 115.688L66.655 116.495C67.4597 113.615 68.2006 110.693 68.8777 107.731L65.9531 107.062L63.0285 106.394C62.3723 109.265 61.6549 112.094 60.8763 114.88L63.7656 115.688ZM65.9531 107.062L68.8797 107.722C69.5608 104.7 70.1559 101.596 70.6654 98.4115L67.7031 97.9375L64.7408 97.4635C64.2503 100.529 63.6787 103.509 63.0265 106.403L65.9531 107.062ZM67.7031 97.9375L67.963 94.9488C65.0425 94.6948 62.0814 94.5045 59.0798 94.3777L58.9531 97.375L58.8265 100.372C61.7415 100.495 64.6137 100.68 67.4432 100.926L67.7031 97.9375ZM58.9531 97.375L59.0816 94.3778C56.1228 94.2509 53.1841 94.1875 50.2656 94.1875V97.1875V100.188C53.0971 100.188 55.9501 100.249 58.8247 100.372L58.9531 97.375ZM50.2656 97.1875V94.1875C46.7593 94.1875 43.1106 94.272 39.3199 94.4405L39.4531 97.4375L39.5863 100.435C43.2957 100.27 46.8553 100.188 50.2656 100.188V97.1875ZM39.4531 97.4375L39.3199 94.4405C35.5266 94.6091 31.6927 94.8619 27.8182 95.1988L28.0781 98.1875L28.338 101.176C32.1302 100.846 35.8797 100.599 39.5863 100.435L39.4531 97.4375ZM28.0781 98.1875L27.8505 95.1961C23.9625 95.492 20.0951 95.8935 16.2484 96.4007L16.6406 99.375L17.0328 102.349C20.7695 101.857 24.5271 101.466 28.3057 101.179L28.0781 98.1875ZM16.6406 99.375L16.2806 96.3967C12.4383 96.8611 8.71766 97.4106 5.11927 98.0456L5.64062 101L6.16198 103.954C9.64692 103.339 13.2597 102.806 17.0006 102.353L16.6406 99.375ZM5.64062 101L8.27106 102.442C14.0181 91.9625 18.7962 81.1812 22.6029 70.0996L19.7656 69.125L16.9284 68.1504C13.235 78.9021 8.59644 89.3708 3.01019 99.5575L5.64062 101ZM19.7656 69.125L22.6007 70.106C26.4541 58.9693 29.2886 47.3951 31.1068 35.3866L28.1406 34.9375L25.1744 34.4884C23.4093 46.1466 20.6605 57.3641 16.9305 68.144L19.7656 69.125ZM28.1406 34.9375L27.3513 37.8318C29.2786 38.3574 31.3237 38.8137 33.4842 39.2025L34.0156 36.25L34.5471 33.2975C32.5409 32.9363 30.6693 32.5176 28.93 32.0432L28.1406 34.9375ZM34.0156 36.25L33.5507 39.2138C35.7165 39.5535 37.9027 39.8506 40.1093 40.1052L40.4531 37.125L40.797 34.1448C38.6702 33.8994 36.5647 33.6132 34.4805 33.2862L34.0156 36.25ZM40.4531 37.125L40.166 40.1112C42.3669 40.3229 44.5278 40.4924 46.6484 40.6196L46.8281 37.625L47.0078 34.6304C44.9618 34.5076 42.8727 34.3438 40.7403 34.1388L40.4531 37.125ZM46.8281 37.625L46.652 40.6198C48.8279 40.7478 50.8872 40.8125 52.8281 40.8125V37.8125V34.8125C51.0191 34.8125 49.0783 34.7522 47.0043 34.6302L46.8281 37.625ZM52.8281 37.8125V40.8125C55.3713 40.8125 57.8948 40.7047 60.3983 40.4889L60.1406 37.5L59.883 34.5111C57.5531 34.7119 55.2016 34.8125 52.8281 34.8125V37.8125ZM60.1406 37.5L60.3983 40.4889C62.8817 40.2748 65.3842 39.9753 67.9055 39.5907L67.4531 36.625L67.0007 33.6593C64.6054 34.0247 62.2329 34.3085 59.883 34.5111L60.1406 37.5ZM67.4531 36.625L65.1551 34.6966C60.0657 40.7614 55.3408 47.2456 50.9795 54.1474L53.5156 55.75L56.0517 57.3526C60.2738 50.671 64.8405 44.4053 69.7512 38.5534L67.4531 36.625ZM53.5156 55.75L50.9769 54.1516C46.6078 61.0907 42.8737 68.7362 39.7668 77.0779L42.5781 78.125L45.3895 79.1721C48.3659 71.1805 51.9234 63.9093 56.0543 57.3484L53.5156 55.75ZM42.5781 78.125L42.329 81.1146C43.8244 81.2393 45.2779 81.3638 46.6894 81.4884L46.9531 78.5L47.2168 75.5116C45.795 75.3862 44.3318 75.2607 42.8273 75.1354L42.5781 78.125ZM46.9531 78.5L46.782 81.4951C48.2972 81.5817 49.8126 81.625 51.3281 81.625V78.625V75.625C49.927 75.625 48.5257 75.585 47.1243 75.5049L46.9531 78.5ZM51.3281 78.625V81.625C54.371 81.625 57.3745 81.4964 60.338 81.2387L60.0781 78.25L59.8182 75.2613C57.0318 75.5036 54.2019 75.625 51.3281 75.625V78.625ZM60.0781 78.25L60.3809 81.2347C63.353 80.9332 66.3623 80.4815 69.4085 79.8808L68.8281 76.9375L68.2478 73.9942C65.3773 74.5602 62.5533 74.9835 59.7753 75.2653L60.0781 78.25ZM68.8281 76.9375L71.8262 76.8291C71.5697 69.7349 70.6526 62.0814 69.0875 53.8755L66.1406 54.4375L63.1937 54.9995C64.712 62.9602 65.5865 70.3068 65.8301 77.0459L68.8281 76.9375ZM66.1406 54.4375L65.869 57.4252C66.8264 57.5122 67.7653 57.5778 68.6854 57.6216L68.8281 54.625L68.9708 51.6284C68.141 51.5889 67.2881 51.5294 66.4122 51.4498L66.1406 54.4375ZM68.8281 54.625L68.6919 57.6219C69.6518 57.6655 70.5931 57.6875 71.5156 57.6875V54.6875V51.6875C70.6882 51.6875 69.8378 51.6678 68.9643 51.6281L68.8281 54.625ZM71.5156 54.6875V57.6875C73.5974 57.6875 75.8559 57.6008 78.2881 57.4301L78.0781 54.4375L77.8681 51.4449C75.5503 51.6075 73.4339 51.6875 71.5156 51.6875V54.6875ZM78.0781 54.4375L78.3403 57.426C80.7816 57.2119 83.2617 56.9124 85.7805 56.5282L85.3281 53.5625L84.8757 50.5968C82.4779 50.9626 80.1247 51.2465 77.816 51.449L78.0781 54.4375ZM85.3281 53.5625L85.8213 56.5217C88.3907 56.0935 90.9193 55.5792 93.407 54.9787L92.7031 52.0625L91.9992 49.1463C89.6536 49.7124 87.2656 50.1982 84.8349 50.6033L85.3281 53.5625ZM92.7031 52.0625L93.407 54.9787C95.9236 54.3713 98.2506 53.6706 100.381 52.8715L99.3281 50.0625L98.2748 47.2535C96.4056 47.9544 94.316 48.587 91.9992 49.1463L92.7031 52.0625ZM99.3281 50.0625L96.3583 49.6382C95.5556 55.257 94.9847 60.8163 94.6463 66.3157L97.6406 66.5L100.635 66.6843C100.963 61.3504 101.517 55.9513 102.298 50.4868L99.3281 50.0625ZM97.6406 66.5L94.6464 66.3143C94.3092 71.7515 94.1406 77.2093 94.1406 82.6875H97.1406H100.141C100.141 77.3324 100.305 71.9985 100.635 66.6857L97.6406 66.5ZM97.1406 82.6875H94.1406C94.1406 89.6826 94.4145 96.6163 94.9626 103.489L97.9531 103.25L100.944 103.011C100.408 96.3004 100.141 89.5258 100.141 82.6875H97.1406ZM97.9531 103.25L94.9626 103.489C95.5101 110.354 96.3104 117.198 97.3632 124.02L100.328 123.562L103.293 123.105C102.263 116.427 101.479 109.73 100.944 103.011L97.9531 103.25Z" fill="#818181" mask="url(#path-1-outside-1_935_181)"/>
<mask id="path-3-outside-2_935_181" maskUnits="userSpaceOnUse" x="200.766" y="31" width="105" height="108" fill="black">
<rect fill="white" x="200.766" y="31" width="105" height="108"/>
<path d="M301.328 123.562C300.745 123.562 300.161 123.542 299.578 123.5C299.036 123.458 298.474 123.438 297.891 123.438C294.849 123.438 291.641 123.625 288.266 124C284.932 124.375 281.599 124.938 278.266 125.688C274.932 126.438 271.682 127.354 268.516 128.438C265.349 129.562 262.411 130.833 259.703 132.25C260.536 129.5 261.391 126.75 262.266 124C263.141 121.25 263.974 118.479 264.766 115.688C265.557 112.854 266.286 109.979 266.953 107.062C267.62 104.104 268.203 101.062 268.703 97.9375C265.828 97.6875 262.911 97.5 259.953 97.375C257.036 97.25 254.141 97.1875 251.266 97.1875C247.807 97.1875 244.203 97.2708 240.453 97.4375C236.703 97.6042 232.911 97.8542 229.078 98.1875C225.245 98.4792 221.432 98.875 217.641 99.375C213.849 99.8333 210.182 100.375 206.641 101C212.307 90.6667 217.016 80.0417 220.766 69.125C224.557 58.1667 227.349 46.7708 229.141 34.9375C230.974 35.4375 232.932 35.875 235.016 36.25C237.141 36.5833 239.286 36.875 241.453 37.125C243.62 37.3333 245.745 37.5 247.828 37.625C249.953 37.75 251.953 37.8125 253.828 37.8125C256.286 37.8125 258.724 37.7083 261.141 37.5C263.557 37.2917 265.995 37 268.453 36.625C263.453 42.5833 258.807 48.9583 254.516 55.75C250.266 62.5 246.62 69.9583 243.578 78.125C245.078 78.25 246.536 78.375 247.953 78.5C249.411 78.5833 250.87 78.625 252.328 78.625C255.286 78.625 258.203 78.5 261.078 78.25C263.953 77.9583 266.87 77.5208 269.828 76.9375C269.578 70.0208 268.682 62.5208 267.141 54.4375C268.057 54.5208 268.953 54.5833 269.828 54.625C270.745 54.6667 271.641 54.6875 272.516 54.6875C274.516 54.6875 276.703 54.6042 279.078 54.4375C281.453 54.2292 283.87 53.9375 286.328 53.5625C288.828 53.1458 291.286 52.6458 293.703 52.0625C296.12 51.4792 298.328 50.8125 300.328 50.0625C299.536 55.6042 298.974 61.0833 298.641 66.5C298.307 71.875 298.141 77.2708 298.141 82.6875C298.141 89.6042 298.411 96.4583 298.953 103.25C299.495 110.042 300.286 116.812 301.328 123.562Z"/>
</mask>
<path d="M301.328 123.562C300.745 123.562 300.161 123.542 299.578 123.5C299.036 123.458 298.474 123.438 297.891 123.438C294.849 123.438 291.641 123.625 288.266 124C284.932 124.375 281.599 124.938 278.266 125.688C274.932 126.438 271.682 127.354 268.516 128.438C265.349 129.562 262.411 130.833 259.703 132.25C260.536 129.5 261.391 126.75 262.266 124C263.141 121.25 263.974 118.479 264.766 115.688C265.557 112.854 266.286 109.979 266.953 107.062C267.62 104.104 268.203 101.062 268.703 97.9375C265.828 97.6875 262.911 97.5 259.953 97.375C257.036 97.25 254.141 97.1875 251.266 97.1875C247.807 97.1875 244.203 97.2708 240.453 97.4375C236.703 97.6042 232.911 97.8542 229.078 98.1875C225.245 98.4792 221.432 98.875 217.641 99.375C213.849 99.8333 210.182 100.375 206.641 101C212.307 90.6667 217.016 80.0417 220.766 69.125C224.557 58.1667 227.349 46.7708 229.141 34.9375C230.974 35.4375 232.932 35.875 235.016 36.25C237.141 36.5833 239.286 36.875 241.453 37.125C243.62 37.3333 245.745 37.5 247.828 37.625C249.953 37.75 251.953 37.8125 253.828 37.8125C256.286 37.8125 258.724 37.7083 261.141 37.5C263.557 37.2917 265.995 37 268.453 36.625C263.453 42.5833 258.807 48.9583 254.516 55.75C250.266 62.5 246.62 69.9583 243.578 78.125C245.078 78.25 246.536 78.375 247.953 78.5C249.411 78.5833 250.87 78.625 252.328 78.625C255.286 78.625 258.203 78.5 261.078 78.25C263.953 77.9583 266.87 77.5208 269.828 76.9375C269.578 70.0208 268.682 62.5208 267.141 54.4375C268.057 54.5208 268.953 54.5833 269.828 54.625C270.745 54.6667 271.641 54.6875 272.516 54.6875C274.516 54.6875 276.703 54.6042 279.078 54.4375C281.453 54.2292 283.87 53.9375 286.328 53.5625C288.828 53.1458 291.286 52.6458 293.703 52.0625C296.12 51.4792 298.328 50.8125 300.328 50.0625C299.536 55.6042 298.974 61.0833 298.641 66.5C298.307 71.875 298.141 77.2708 298.141 82.6875C298.141 89.6042 298.411 96.4583 298.953 103.25C299.495 110.042 300.286 116.812 301.328 123.562Z" fill="#F1F1F1"/>
<path d="M301.328 123.562V126.562H304.827L304.293 123.105L301.328 123.562ZM299.578 123.5L299.348 126.491L299.356 126.492L299.364 126.492L299.578 123.5ZM288.266 124L287.934 121.018L287.93 121.019L288.266 124ZM268.516 128.438L267.545 125.599L267.528 125.605L267.511 125.611L268.516 128.438ZM259.703 132.25L256.832 131.38L254.759 138.222L261.094 134.908L259.703 132.25ZM264.766 115.688L267.652 116.506L267.655 116.495L264.766 115.688ZM266.953 107.062L269.878 107.731L269.88 107.722L266.953 107.062ZM268.703 97.9375L271.665 98.4115L272.175 95.2281L268.963 94.9488L268.703 97.9375ZM259.953 97.375L259.825 100.372L259.826 100.372L259.953 97.375ZM229.078 98.1875L229.306 101.179L229.322 101.178L229.338 101.176L229.078 98.1875ZM217.641 99.375L218.001 102.353L218.017 102.351L218.033 102.349L217.641 99.375ZM206.641 101L204.01 99.5575L201.003 105.041L207.162 103.954L206.641 101ZM220.766 69.125L217.931 68.144L217.928 68.1504L220.766 69.125ZM229.141 34.9375L229.93 32.0432L226.679 31.1566L226.174 34.4884L229.141 34.9375ZM235.016 36.25L234.484 39.2025L234.517 39.2085L234.551 39.2138L235.016 36.25ZM241.453 37.125L241.109 40.1052L241.138 40.1085L241.166 40.1112L241.453 37.125ZM247.828 37.625L247.648 40.6196L247.652 40.6198L247.828 37.625ZM268.453 36.625L270.751 38.5534L275.865 32.4597L268.001 33.6593L268.453 36.625ZM254.516 55.75L251.98 54.1474L251.977 54.1516L254.516 55.75ZM243.578 78.125L240.767 77.0779L239.386 80.786L243.329 81.1146L243.578 78.125ZM247.953 78.5L247.689 81.4884L247.736 81.4925L247.782 81.4951L247.953 78.5ZM261.078 78.25L261.338 81.2387L261.359 81.2369L261.381 81.2347L261.078 78.25ZM269.828 76.9375L270.408 79.8808L272.919 79.3859L272.826 76.8291L269.828 76.9375ZM267.141 54.4375L267.412 51.4498L263.448 51.0894L264.194 54.9995L267.141 54.4375ZM269.828 54.625L269.685 57.6216L269.692 57.6219L269.828 54.625ZM279.078 54.4375L279.288 57.4301L279.314 57.4283L279.34 57.426L279.078 54.4375ZM286.328 53.5625L286.781 56.5282L286.801 56.5251L286.821 56.5217L286.328 53.5625ZM300.328 50.0625L303.298 50.4868L304.014 45.4764L299.275 47.2535L300.328 50.0625ZM298.641 66.5L301.635 66.6857L301.635 66.6843L298.641 66.5ZM301.328 123.562V120.562C300.816 120.562 300.304 120.544 299.792 120.508L299.578 123.5L299.364 126.492C300.019 126.539 300.673 126.562 301.328 126.562V123.562ZM299.578 123.5L299.808 120.509C299.185 120.461 298.545 120.438 297.891 120.438V123.438V126.438C298.403 126.438 298.888 126.456 299.348 126.491L299.578 123.5ZM297.891 123.438V120.438C294.726 120.438 291.407 120.633 287.934 121.018L288.266 124L288.597 126.982C291.874 126.617 294.972 126.438 297.891 126.438V123.438ZM288.266 124L287.93 121.019C284.486 121.406 281.045 121.987 277.607 122.761L278.266 125.688L278.924 128.614C282.153 127.888 285.378 127.344 288.601 126.981L288.266 124ZM278.266 125.688L277.607 122.761C274.17 123.534 270.816 124.48 267.545 125.599L268.516 128.438L269.487 131.276C272.549 130.228 275.694 129.341 278.924 128.614L278.266 125.688ZM268.516 128.438L267.511 125.611C264.225 126.778 261.157 128.104 258.313 129.592L259.703 132.25L261.094 134.908C263.666 133.563 266.473 132.347 269.52 131.264L268.516 128.438ZM259.703 132.25L262.574 133.12C263.404 130.383 264.254 127.646 265.124 124.91L262.266 124L259.407 123.09C258.528 125.854 257.669 128.617 256.832 131.38L259.703 132.25ZM262.266 124L265.124 124.91C266.009 122.129 266.852 119.328 267.652 116.506L264.766 115.688L261.879 114.869C261.096 117.63 260.272 120.371 259.407 123.09L262.266 124ZM264.766 115.688L267.655 116.495C268.46 113.615 269.201 110.693 269.878 107.731L266.953 107.062L264.029 106.394C263.372 109.265 262.655 112.094 261.876 114.88L264.766 115.688ZM266.953 107.062L269.88 107.722C270.561 104.7 271.156 101.596 271.665 98.4115L268.703 97.9375L265.741 97.4635C265.25 100.529 264.679 103.509 264.027 106.403L266.953 107.062ZM268.703 97.9375L268.963 94.9488C266.043 94.6948 263.081 94.5045 260.08 94.3777L259.953 97.375L259.826 100.372C262.741 100.495 265.614 100.68 268.443 100.926L268.703 97.9375ZM259.953 97.375L260.082 94.3778C257.123 94.2509 254.184 94.1875 251.266 94.1875V97.1875V100.188C254.097 100.188 256.95 100.249 259.825 100.372L259.953 97.375ZM251.266 97.1875V94.1875C247.759 94.1875 244.111 94.272 240.32 94.4405L240.453 97.4375L240.586 100.435C244.296 100.27 247.855 100.188 251.266 100.188V97.1875ZM240.453 97.4375L240.32 94.4405C236.527 94.6091 232.693 94.8619 228.818 95.1988L229.078 98.1875L229.338 101.176C233.13 100.846 236.88 100.599 240.586 100.435L240.453 97.4375ZM229.078 98.1875L228.851 95.1961C224.962 95.492 221.095 95.8935 217.248 96.4007L217.641 99.375L218.033 102.349C221.77 101.857 225.527 101.466 229.306 101.179L229.078 98.1875ZM217.641 99.375L217.281 96.3967C213.438 96.8611 209.718 97.4106 206.119 98.0456L206.641 101L207.162 103.954C210.647 103.339 214.26 102.806 218.001 102.353L217.641 99.375ZM206.641 101L209.271 102.442C215.018 91.9625 219.796 81.1812 223.603 70.0996L220.766 69.125L217.928 68.1504C214.235 78.9021 209.596 89.3708 204.01 99.5575L206.641 101ZM220.766 69.125L223.601 70.106C227.454 58.9693 230.289 47.3951 232.107 35.3866L229.141 34.9375L226.174 34.4884C224.409 46.1466 221.66 57.3641 217.931 68.144L220.766 69.125ZM229.141 34.9375L228.351 37.8318C230.279 38.3574 232.324 38.8137 234.484 39.2025L235.016 36.25L235.547 33.2975C233.541 32.9363 231.669 32.5176 229.93 32.0432L229.141 34.9375ZM235.016 36.25L234.551 39.2138C236.717 39.5535 238.903 39.8506 241.109 40.1052L241.453 37.125L241.797 34.1448C239.67 33.8994 237.565 33.6132 235.481 33.2862L235.016 36.25ZM241.453 37.125L241.166 40.1112C243.367 40.3229 245.528 40.4924 247.648 40.6196L247.828 37.625L248.008 34.6304C245.962 34.5076 243.873 34.3438 241.74 34.1388L241.453 37.125ZM247.828 37.625L247.652 40.6198C249.828 40.7478 251.887 40.8125 253.828 40.8125V37.8125V34.8125C252.019 34.8125 250.078 34.7522 248.004 34.6302L247.828 37.625ZM253.828 37.8125V40.8125C256.371 40.8125 258.895 40.7047 261.398 40.4889L261.141 37.5L260.883 34.5111C258.553 34.7119 256.202 34.8125 253.828 34.8125V37.8125ZM261.141 37.5L261.398 40.4889C263.882 40.2748 266.384 39.9753 268.906 39.5907L268.453 36.625L268.001 33.6593C265.605 34.0247 263.233 34.3085 260.883 34.5111L261.141 37.5ZM268.453 36.625L266.155 34.6966C261.066 40.7614 256.341 47.2456 251.98 54.1474L254.516 55.75L257.052 57.3526C261.274 50.671 265.841 44.4053 270.751 38.5534L268.453 36.625ZM254.516 55.75L251.977 54.1516C247.608 61.0907 243.874 68.7362 240.767 77.0779L243.578 78.125L246.389 79.1721C249.366 71.1805 252.923 63.9093 257.054 57.3484L254.516 55.75ZM243.578 78.125L243.329 81.1146C244.824 81.2393 246.278 81.3638 247.689 81.4884L247.953 78.5L248.217 75.5116C246.795 75.3862 245.332 75.2607 243.827 75.1354L243.578 78.125ZM247.953 78.5L247.782 81.4951C249.297 81.5817 250.813 81.625 252.328 81.625V78.625V75.625C250.927 75.625 249.526 75.585 248.124 75.5049L247.953 78.5ZM252.328 78.625V81.625C255.371 81.625 258.374 81.4964 261.338 81.2387L261.078 78.25L260.818 75.2613C258.032 75.5036 255.202 75.625 252.328 75.625V78.625ZM261.078 78.25L261.381 81.2347C264.353 80.9332 267.362 80.4815 270.408 79.8808L269.828 76.9375L269.248 73.9942C266.377 74.5602 263.553 74.9835 260.775 75.2653L261.078 78.25ZM269.828 76.9375L272.826 76.8291C272.57 69.7349 271.653 62.0814 270.088 53.8755L267.141 54.4375L264.194 54.9995C265.712 62.9602 266.587 70.3068 266.83 77.0459L269.828 76.9375ZM267.141 54.4375L266.869 57.4252C267.826 57.5122 268.765 57.5778 269.685 57.6216L269.828 54.625L269.971 51.6284C269.141 51.5889 268.288 51.5294 267.412 51.4498L267.141 54.4375ZM269.828 54.625L269.692 57.6219C270.652 57.6655 271.593 57.6875 272.516 57.6875V54.6875V51.6875C271.688 51.6875 270.838 51.6678 269.964 51.6281L269.828 54.625ZM272.516 54.6875V57.6875C274.597 57.6875 276.856 57.6008 279.288 57.4301L279.078 54.4375L278.868 51.4449C276.55 51.6075 274.434 51.6875 272.516 51.6875V54.6875ZM279.078 54.4375L279.34 57.426C281.782 57.2119 284.262 56.9124 286.781 56.5282L286.328 53.5625L285.876 50.5968C283.478 50.9626 281.125 51.2465 278.816 51.449L279.078 54.4375ZM286.328 53.5625L286.821 56.5217C289.391 56.0935 291.919 55.5792 294.407 54.9787L293.703 52.0625L292.999 49.1463C290.654 49.7124 288.266 50.1982 285.835 50.6033L286.328 53.5625ZM293.703 52.0625L294.407 54.9787C296.924 54.3713 299.251 53.6706 301.381 52.8715L300.328 50.0625L299.275 47.2535C297.406 47.9544 295.316 48.587 292.999 49.1463L293.703 52.0625ZM300.328 50.0625L297.358 49.6382C296.556 55.257 295.985 60.8163 295.646 66.3157L298.641 66.5L301.635 66.6843C301.963 61.3504 302.517 55.9513 303.298 50.4868L300.328 50.0625ZM298.641 66.5L295.646 66.3143C295.309 71.7515 295.141 77.2093 295.141 82.6875H298.141H301.141C301.141 77.3324 301.305 71.9985 301.635 66.6857L298.641 66.5ZM298.141 82.6875H295.141C295.141 89.6826 295.415 96.6163 295.963 103.489L298.953 103.25L301.944 103.011C301.408 96.3004 301.141 89.5258 301.141 82.6875H298.141ZM298.953 103.25L295.963 103.489C296.51 110.354 297.31 117.198 298.363 124.02L301.328 123.562L304.293 123.105C303.263 116.427 302.479 109.73 301.944 103.011L298.953 103.25Z" fill="#818181" mask="url(#path-3-outside-2_935_181)"/>
<path d="M163.25 29.0166C203.25 27.3862 205.917 93.5535 202.25 126.841C194.648 134.993 191.751 124.124 191.253 117.671C190.586 112.406 188.653 105.035 186.253 117.671C183.853 130.306 175.116 125.313 173.753 120.728C169.753 107.277 157.253 107.48 156.253 114.614C152.253 132.14 143.586 123.954 140.253 118.69C135.853 107.277 128.753 105.952 127.253 112.576C124.853 125.619 116.77 126.836 111.768 125.817C101.265 41.7481 140.917 26.469 163.25 29.0166Z" fill="#F2F2F2"/>
<path d="M113.767 126.829C120.567 128.052 126.6 115.45 128.767 108.997C121.967 59.2694 137.933 36.3078 146.766 31.043L137.267 35.119C108.267 42.252 105.267 125.301 113.767 126.829Z" fill="#AEAEAE" fill-opacity="0.5"/>
<path d="M162.984 29.2607C202.984 27.6303 205.651 93.7977 201.984 127.085C194.382 135.237 191.485 124.368 190.987 117.915C190.32 112.65 188.387 105.279 185.987 117.915C183.587 130.55 174.851 125.557 173.487 120.972C169.487 107.521 156.987 107.725 155.987 114.858C151.987 132.385 143.32 124.199 139.987 118.934C135.587 107.521 128.487 106.196 126.987 112.82C124.587 125.863 116.505 127.08 111.502 126.061C101 41.9922 140.651 26.7131 162.984 29.2607Z" stroke="#818181" stroke-width="3"/>
<ellipse cx="159.766" cy="63.6501" rx="8" ry="8.15203" fill="#303030"/>
<ellipse cx="184.766" cy="63.6501" rx="8" ry="8.15203" fill="#303030"/>
<ellipse cx="163.266" cy="64.1608" rx="2.5" ry="2.54751" fill="#D9D9D9"/>
<g filter="url(#filter0_d_935_181)">
<ellipse cx="188.266" cy="64.1608" rx="2.5" ry="2.54751" fill="#D9D9D9"/>
</g>
<defs>
<filter id="filter0_d_935_181" x="181.766" y="61.6133" width="13" height="13.0957" filterUnits="userSpaceOnUse" color-interpolation-filters="sRGB">
<feFlood flood-opacity="0" result="BackgroundImageFix"/>
<feColorMatrix in="SourceAlpha" type="matrix" values="0 0 0 0 0 0 0 0 0 0 0 0 0 0 0 0 0 0 127 0" result="hardAlpha"/>
<feOffset dy="4"/>
<feGaussianBlur stdDeviation="2"/>
<feComposite in2="hardAlpha" operator="out"/>
<feColorMatrix type="matrix" values="0 0 0 0 0 0 0 0 0 0 0 0 0 0 0 0 0 0 0.25 0"/>
<feBlend mode="normal" in2="BackgroundImageFix" result="effect1_dropShadow_935_181"/>
<feBlend mode="normal" in="SourceGraphic" in2="effect1_dropShadow_935_181" result="shape"/>
</filter>
</defs>
</svg>
